<svg viewBox="0 0 208 86" fill="none" xmlns="http://www.w3.org/2000/svg">
    <path
    d="M186.231 85H126.208C115.996 85 107.638 76.6708 107.638 66.4941C107.638 56.3175 115.996 47.9883 126.208 47.9883H186.231C196.443 47.9883 204.801 56.3175 204.801 66.4941C204.801 76.6708 196.443 85 186.231 85Z"
    fill="#FF3900"
  />
    <path
    d="M19.3358 0C24.6883 0 29.4066 1.95463 32.8463 5.22693V15.3113C31.202 9.39874 25.9569 5.27559 19.3358 5.27559C11.3341 5.27559 5.29389 11.2951 5.29389 19.2692C5.29389 27.2433 11.3341 33.2626 19.3358 33.2626C25.4298 33.2626 30.3578 29.7765 32.373 24.6031H14.0372V19.3226H32.8509V33.3162C29.4063 36.5886 24.6883 38.5432 19.3408 38.5432C8.31894 38.5432 2.14513e-06 30.253 2.14513e-06 19.2692C-0.00487696 8.29023 8.31394 0 19.3358 0Z"
    fill="black"
  />
    <path
    d="M37.6169 0.792603H66.2329V6.07294H42.9156V16.6338H66.2329V21.9143H42.9156V32.4751H66.2329V37.7553H37.6169V0.792603Z"
    fill="black"
  />
    <path
    d="M71.0007 0.792603H82.1301L98.7679 37.7553V0.792603H104.067V37.7553H92.9372L76.2994 0.792603V37.7553H71.0007V0.792603Z"
    fill="black"
  />
    <path
    d="M107.775 32.4751H121.285V6.07294H107.775V0.792603H140.099V6.07294H126.589V32.4751H140.099V37.7553H107.775V32.4751Z"
    fill="black"
  />
    <path
    d="M142.747 20.4361V0.792603H148.046V20.5431C148.046 28.0406 153.662 33.5349 161.19 33.5349C168.606 33.5349 174.544 28.0455 174.544 20.5431V0.792603H179.843V20.4361C179.843 30.8414 171.578 38.8155 161.19 38.8155C150.802 38.8155 142.747 30.7878 142.747 20.4361Z"
    fill="black"
  />
    <path
    d="M182.231 35.1685V25.5023C182.763 30.0435 187.369 33.0533 191.716 33.0533C194.844 33.0533 198.127 31.3126 198.127 27.8265C198.127 20.3823 182.231 22.4392 182.231 10.8766C182.231 4.17156 187.476 0.20874 193.887 0.20874C196.854 0.20874 199.772 1.10828 202.153 2.90245V12.6172C201.675 8.33846 198.176 5.48922 193.941 5.48922C190.814 5.48922 187.53 6.96731 187.53 10.5605C187.53 18.3256 203.426 16.8426 203.426 27.9868C203.426 34.6386 198.02 38.3388 191.77 38.3388C188.374 38.3388 184.934 37.2788 182.231 35.1685Z"
    fill="black"
  />
    <path
    d="M129.435 70.0929C129.435 69.4311 129.183 68.9193 128.678 68.5575C128.182 68.1868 127.31 67.8692 126.061 67.6044C124.822 67.3398 123.834 67.022 123.1 66.6513C122.373 66.2809 121.833 65.8396 121.479 65.3278C121.134 64.816 120.961 64.2072 120.961 63.5011C120.961 62.3275 121.457 61.3348 122.449 60.5231C123.449 59.7111 124.724 59.3052 126.274 59.3052C127.903 59.3052 129.223 59.7244 130.232 60.5628C131.25 61.4009 131.759 62.4731 131.759 63.7792H129.289C129.289 63.1086 129.001 62.5304 128.426 62.0453C127.859 61.5599 127.142 61.3171 126.274 61.3171C125.38 61.3171 124.68 61.5114 124.175 61.8995C123.671 62.2878 123.418 62.7952 123.418 63.4217C123.418 64.0129 123.653 64.4586 124.122 64.7587C124.591 65.0586 125.437 65.3455 126.659 65.6189C127.89 65.8926 128.886 66.2191 129.648 66.5984C130.409 66.9779 130.972 67.4368 131.334 67.9751C131.706 68.5045 131.892 69.1531 131.892 69.9209C131.892 71.2003 131.379 72.2283 130.351 73.005C129.324 73.7726 127.992 74.1565 126.354 74.1565C125.203 74.1565 124.184 73.9534 123.299 73.5477C122.413 73.1417 121.718 72.577 121.213 71.8532C120.718 71.1209 120.47 70.331 120.47 69.484H122.927C122.971 70.3046 123.299 70.9577 123.91 71.4431C124.529 71.9194 125.344 72.1578 126.354 72.1578C127.283 72.1578 128.027 71.9725 128.585 71.6018C129.152 71.2223 129.435 70.7194 129.435 70.0929ZM147.233 66.8897C147.233 69.0693 146.733 70.8252 145.732 72.1578C144.732 73.4901 143.377 74.1565 141.668 74.1565C139.924 74.1565 138.551 73.605 137.551 72.502V79.3981H135.093V59.57H137.338L137.458 61.1584C138.458 59.9228 139.848 59.3052 141.628 59.3052C143.355 59.3052 144.719 59.9539 145.719 61.251C146.729 62.548 147.233 64.3527 147.233 66.6646V66.8897ZM144.776 66.6116C144.776 64.9968 144.431 63.7218 143.74 62.7864C143.049 61.851 142.102 61.3833 140.898 61.3833C139.41 61.3833 138.294 62.0409 137.551 63.3556V70.1987C138.286 71.5048 139.41 72.1578 140.924 72.1578C142.102 72.1578 143.036 71.6945 143.727 70.7679C144.426 69.8324 144.776 68.4472 144.776 66.6116ZM159.24 73.8917C159.099 73.6094 158.984 73.1064 158.895 72.3827C157.753 73.5653 156.389 74.1565 154.804 74.1565C153.387 74.1565 152.223 73.7593 151.311 72.9651C150.408 72.1622 149.956 71.1474 149.956 69.9209C149.956 68.4296 150.523 67.2736 151.656 66.4529C152.798 65.6233 154.401 65.2087 156.464 65.2087H158.855V64.0835C158.855 63.2277 158.598 62.548 158.085 62.0453C157.571 61.5335 156.814 61.2774 155.814 61.2774C154.937 61.2774 154.202 61.498 153.609 61.9392C153.016 62.3804 152.719 62.9143 152.719 63.5408H150.248C150.248 62.8261 150.501 62.1379 151.005 61.4759C151.519 60.8053 152.21 60.2759 153.077 59.8875C153.954 59.4994 154.915 59.3052 155.96 59.3052C157.616 59.3052 158.913 59.72 159.851 60.5495C160.79 61.3701 161.277 62.5039 161.313 63.9512V70.5429C161.313 71.8576 161.481 72.9033 161.817 73.68V73.8917H159.24ZM155.163 72.0255C155.933 72.0255 156.664 71.8268 157.354 71.4298C158.045 71.0327 158.545 70.5165 158.855 69.8812V66.9426H156.929C153.919 66.9426 152.413 67.8207 152.413 69.5767C152.413 70.3443 152.67 70.9445 153.184 71.3767C153.697 71.8091 154.357 72.0255 155.163 72.0255ZM170.929 72.1578C171.805 72.1578 172.571 71.8929 173.226 71.3635C173.882 70.834 174.245 70.1723 174.316 69.3782H176.64C176.596 70.1987 176.312 70.9798 175.79 71.7209C175.268 72.4623 174.568 73.0535 173.691 73.4945C172.824 73.9357 171.903 74.1565 170.929 74.1565C168.972 74.1565 167.413 73.508 166.253 72.2107C165.102 70.9048 164.527 69.1222 164.527 66.8632V66.4529C164.527 65.0586 164.783 63.8188 165.297 62.7335C165.811 61.6481 166.546 60.8053 167.502 60.2053C168.467 59.6053 169.605 59.3052 170.915 59.3052C172.527 59.3052 173.864 59.7861 174.927 60.748C175.998 61.7099 176.569 62.9584 176.64 64.4938H174.316C174.245 63.5672 173.891 62.8085 173.253 62.2173C172.624 61.6173 171.845 61.3171 170.915 61.3171C169.667 61.3171 168.697 61.7672 168.007 62.6673C167.325 63.5584 166.984 64.8513 166.984 66.5455V67.0088C166.984 68.6589 167.325 69.9297 168.007 70.8208C168.689 71.7121 169.663 72.1578 170.929 72.1578ZM185.367 74.1565C183.418 74.1565 181.833 73.5212 180.611 72.2504C179.389 70.971 178.779 69.2633 178.779 67.1279V66.6778C178.779 65.2573 179.049 63.9908 179.589 62.879C180.138 61.7584 180.899 60.8847 181.873 60.2582C182.856 59.6229 183.919 59.3052 185.061 59.3052C186.929 59.3052 188.382 59.9184 189.418 61.1451C190.454 62.3716 190.972 64.1278 190.972 66.4132V67.4324H181.236C181.271 68.8443 181.683 69.987 182.471 70.8605C183.268 71.7253 184.277 72.1578 185.499 72.1578C186.367 72.1578 187.102 71.9813 187.704 71.6283C188.306 71.2753 188.833 70.8076 189.285 70.2252L190.786 71.3899C189.581 73.2343 187.775 74.1565 185.367 74.1565ZM185.061 61.3171C184.069 61.3171 183.237 61.679 182.564 62.4025C181.891 63.1174 181.475 64.1234 181.315 65.4204H188.514V65.2352C188.443 63.9908 188.107 63.029 187.505 62.3496C186.903 61.6614 186.088 61.3171 185.061 61.3171Z"
    fill="white"
  />
    <g clip-path="url(#clip0_55_120)">
        <path
      d="M114.076 62.6522C113.917 62.6546 113.758 62.6655 113.599 62.6646C113.109 62.6614 112.621 62.6442 112.133 62.6132C111.646 62.5823 111.159 62.5374 110.674 62.4809C110.189 62.4245 109.706 62.3565 109.224 62.2771C108.742 62.1977 108.261 62.1077 107.782 62.0079C107.303 61.908 106.826 61.7988 106.35 61.6811C105.874 61.5634 105.4 61.4375 104.929 61.3045C104.457 61.1716 103.986 61.0317 103.518 60.8859C103.051 60.7402 102.586 60.589 102.122 60.4331C101.196 60.1214 100.271 59.7894 99.3477 59.4497C98.4241 59.1099 97.5012 58.7616 96.5778 58.4133C95.6545 58.0651 94.7306 57.7172 93.8048 57.3801C92.8789 57.0429 91.9517 56.7156 91.0207 56.4091C90.5551 56.2558 90.0888 56.1075 89.6215 55.9656C89.1541 55.8236 88.6855 55.6892 88.216 55.561C87.7465 55.4328 87.2762 55.312 86.8042 55.2C86.3322 55.088 85.8577 54.9837 85.3829 54.8903C84.908 54.797 84.4317 54.7136 83.9536 54.6413C83.4756 54.5691 82.9965 54.508 82.5149 54.4593C82.0334 54.4105 81.5506 54.3747 81.0652 54.3519C80.5798 54.3292 80.0923 54.3198 79.6028 54.3255C79.0988 54.331 78.5954 54.3542 78.0929 54.3924C77.5905 54.4305 77.0883 54.4842 76.5894 54.5542C76.0905 54.6242 75.5935 54.7098 75.1001 54.811C74.6067 54.9122 74.1172 55.0292 73.6314 55.1611C73.1455 55.293 72.6643 55.4394 72.1879 55.6015C72.084 55.6368 71.9831 55.6814 71.8796 55.7182C73.8034 61.8323 78.9772 68.1635 88.2255 75.9303C91.5461 78.7189 94.4463 81 94.6712 81C95.7659 81 104.268 73.864 108.585 69.3215C110.753 67.0414 112.581 64.8123 114.076 62.6521V62.6522Z"
      fill="#FECB00"
    />
        <path
      d="M82.3552 38.0005C80.1766 38.0191 78.0507 38.5006 76.4534 39.4881C72.3276 42.039 70.9376 44.801 71.0021 50.3185C71.0233 52.1202 71.3106 53.9099 71.8796 55.7182C71.983 55.6814 72.0839 55.6369 72.1879 55.6015C72.6642 55.4394 73.1454 55.293 73.6313 55.1611C74.1172 55.0292 74.6067 54.9122 75.1001 54.811C75.5935 54.7098 76.0904 54.6242 76.5893 54.5542C77.0883 54.4843 77.5904 54.4306 78.0929 54.3924C78.5953 54.3542 79.0987 54.3313 79.6027 54.3255C80.0923 54.3199 80.5798 54.3294 81.0651 54.3519C81.5505 54.3747 82.0334 54.4105 82.5149 54.4593C82.9964 54.508 83.4756 54.5691 83.9536 54.6413C84.4316 54.7136 84.908 54.797 85.3828 54.8903C85.8576 54.9837 86.3321 55.088 86.8041 55.2C87.2761 55.312 87.7464 55.4328 88.2159 55.561C88.6854 55.6892 89.1541 55.8236 89.6214 55.9656C90.0888 56.1075 90.5551 56.2558 91.0206 56.4091C91.9517 56.7156 92.8789 57.0429 93.8047 57.3801C94.7306 57.7172 95.6544 58.0651 96.5778 58.4133C97.5012 58.7616 98.4241 59.1099 99.3477 59.4497C100.271 59.7894 101.196 60.1214 102.122 60.4331C102.586 60.589 103.051 60.7402 103.518 60.8859C103.986 61.0317 104.457 61.1716 104.929 61.3045C105.4 61.4375 105.874 61.5634 106.35 61.6811C106.825 61.7988 107.303 61.908 107.782 62.0079C108.261 62.1077 108.742 62.1977 109.224 62.2771C109.706 62.3565 110.189 62.4245 110.674 62.4809C111.159 62.5374 111.646 62.5823 112.133 62.6132C112.621 62.6441 113.109 62.6617 113.599 62.6646C113.758 62.6654 113.917 62.6546 114.076 62.6522C120.227 53.7677 120.669 46.0539 115.097 40.8C113.203 39.0137 111.716 38.4323 108.332 38.1562C103.044 37.7245 99.6287 39.2416 97.0426 43.1715C94.9831 46.3011 94.3226 46.5578 93.6561 44.491C93.3984 43.6918 92.0993 42.0122 90.7692 40.758C88.8375 38.9364 85.5394 37.9734 82.3552 38.0006V38.0005Z"
      fill="#0068C2"
    />
        <path
      opacity="0.217903"
      d="M100.611 74.8877C111.005 64.0126 114.933 57.2664 114.946 50.2656C114.955 44.7068 113.225 41.5945 109.031 39.6325L105.645 38.0481L109.175 38.4361C115.667 39.1495 119.783 45.4383 118.567 52.7851C117.65 58.3251 114.105 63.712 106.358 71.3407C97.3842 80.1768 92.926 82.9284 100.611 74.8877V74.8877ZM90.438 45.2614C88.7474 42.2455 87.329 40.857 84.7718 39.7143C81.4535 38.2317 81.4267 38.1898 83.7891 38.1757C88.3171 38.1486 95.1682 44.1956 94.523 47.6498C94.0834 50.0039 92.6155 49.1456 90.438 45.2614Z"
      fill="black"
    />
        <path
      opacity="0.367623"
      d="M79.7972 41.6667C78.8044 41.6607 77.7433 42.2801 76.455 43.5481C72.8579 46.74 75.0189 59.426 76.6245 51.3633C76.9213 50.0337 78.8904 48.184 80.1656 47.2561C83.116 45.1091 83.6207 44.3407 82.066 42.8105C81.3001 42.0566 80.5694 41.6721 79.7972 41.6667V41.6667ZM103.86 41.8426C102.452 41.8335 100.964 42.8814 99.958 44.7961C98.3734 47.8122 99.2664 47.9658 101.587 47.9658C102.675 47.9658 103.732 47.0917 104.981 46.0238C107.088 44.222 107.157 43.9875 105.926 42.756C105.313 42.1428 104.597 41.8475 103.86 41.8426V41.8426Z"
      fill="white"
    />
    </g>
    <defs>
        <clipPath id="clip0_55_120">
            <rect
        width="48"
        height="43"
        fill="white"
        transform="translate(71 38)"
      />
        </clipPath>
    </defs>
</svg>
